<svg width="138" height="138" viewBox="0 0 138 138" fill="none" xmlns="http://www.w3.org/2000/svg">
<circle cx="69" cy="69" r="69" fill="#D0DFF6"/>
<path d="M33 99.5V63.3404C33 61.2636 34.074 59.3344 35.8394 58.2404L68.5 38L102.097 58.2504C103.899 59.3362 105 61.2859 105 63.3892V99.5H85H69H54H33Z" fill="#3676F7"/>
<rect x="45" y="44" width="48" height="55" rx="6" fill="white"/>
<path d="M69 75.5L41.3728 63.6049C37.4124 61.8998 33 64.804 33 69.1158V88.2889C33 93.0811 38.3409 95.9394 42.3282 93.2812L69 75.5Z" fill="#3676F7"/>
<path d="M69 75.5L96.6272 63.6049C100.588 61.8998 105 64.804 105 69.1158V88.2889C105 93.0811 99.6591 95.9394 95.6718 93.2812L69 75.5Z" fill="#3676F7"/>
<g filter="url(#filter0_d_86_305)">
<path d="M69 74L33 98V99.5H105V98L69 74Z" fill="#0F4EAD"/>
</g>
<defs>
<filter id="filter0_d_86_305" x="29" y="69" width="80" height="33.5" filterUnits="userSpaceOnUse" color-interpolation-filters="sRGB">
<feFlood flood-opacity="0" result="BackgroundImageFix"/>
<feColorMatrix in="SourceAlpha" type="matrix" values="0 0 0 0 0 0 0 0 0 0 0 0 0 0 0 0 0 0 127 0" result="hardAlpha"/>
<feOffset dy="-1"/>
<feGaussianBlur stdDeviation="2"/>
<feComposite in2="hardAlpha" operator="out"/>
<feColorMatrix type="matrix" values="0 0 0 0 0 0 0 0 0 0 0 0 0 0 0 0 0 0 0.03 0"/>
<feBlend mode="normal" in2="BackgroundImageFix" result="effect1_dropShadow_86_305"/>
<feBlend mode="normal" in="SourceGraphic" in2="effect1_dropShadow_86_305" result="shape"/>
</filter>
</defs>
</svg>
