<svg width="138" height="138" viewBox="0 0 138 138" fill="none" xmlns="http://www.w3.org/2000/svg">
<circle cx="69" cy="69" r="69" fill="#D0DFF6"/>
<path d="M49.9998 49C49.9998 50.6569 51.3429 52 52.9998 52C54.6566 52 55.9998 50.6569 55.9998 49H49.9998ZM84.9998 49H81.9998V49L84.9998 49ZM81.9999 61.0001C82 62.6569 83.3431 64 85 64C86.6568 64 88 62.6568 87.9999 61L81.9999 61.0001ZM55.9998 49C55.9998 41.8203 61.8201 36 68.9998 36V30C58.5063 30 49.9998 38.5066 49.9998 49H55.9998ZM68.9998 36C76.1795 36 81.9998 41.8203 81.9998 49H87.9998C87.9998 38.5066 79.4932 30 68.9998 30V36ZM81.9998 49L81.9999 61.0001L87.9999 61L87.9998 49L81.9998 49Z" fill="#3676F7"/>
<path d="M41 97V69C41 64.5817 44.5817 61 49 61H89C93.4183 61 97 64.5817 97 69V97C97 101.418 93.4183 105 89 105H49C44.5817 105 41 101.418 41 97Z" fill="#3676F7"/>
<circle cx="69" cy="77" r="4" fill="white"/>
<path d="M69 77V89" stroke="white" stroke-width="6" stroke-linecap="round" stroke-linejoin="round"/>
</svg>
